<svg width="14" height="8" viewBox="0 0 14 8" fill="none" xmlns="http://www.w3.org/2000/svg">
<path d="M0.193895 4.28276L0 4L0.193895 3.71724C0.278575 3.59374 0.434623 3.3882 0.657882 3.12773C1.02669 2.69745 1.45395 2.26774 1.93617 1.86589C3.33102 0.703511 4.89885 0 6.60626 0C8.31367 0 9.8815 0.703511 11.2764 1.86589C11.7586 2.26774 12.1858 2.69745 12.5546 3.12773C12.7779 3.3882 12.9339 3.59374 13.0186 3.71724L13.2125 4L13.0186 4.28276C12.9339 4.40626 12.7779 4.6118 12.5546 4.87227C12.1858 5.30255 11.7586 5.73226 11.2764 6.13411C9.8815 7.29649 8.31367 8 6.60626 8C4.89885 8 3.33102 7.29649 1.93617 6.13411C1.45395 5.73226 1.02669 5.30255 0.657882 4.87227C0.434623 4.6118 0.278575 4.40626 0.193895 4.28276ZM1.41714 4.22148C1.75146 4.61152 2.13982 5.00211 2.57635 5.36589C3.8065 6.39101 5.16367 7 6.60626 7C8.04885 7 9.40602 6.39101 10.6362 5.36589C11.0727 5.00211 11.4611 4.61152 11.7954 4.22148C11.8647 4.14063 11.9262 4.06642 11.9797 4C11.9262 3.93358 11.8647 3.85937 11.7954 3.77852C11.4611 3.38848 11.0727 2.99789 10.6362 2.63411C9.40602 1.60899 8.04885 1 6.60626 1C5.16367 1 3.8065 1.60899 2.57635 2.63411C2.13982 2.99789 1.75146 3.38848 1.41714 3.77852C1.34784 3.85937 1.28634 3.93358 1.23286 4C1.28634 4.06642 1.34784 4.14063 1.41714 4.22148ZM6.60626 6.16667C5.28078 6.16667 4.20626 5.122 4.20626 3.83333C4.20626 2.54467 5.28078 1.5 6.60626 1.5C7.93174 1.5 9.00626 2.54467 9.00626 3.83333C9.00626 5.122 7.93174 6.16667 6.60626 6.16667Z" fill="white"/>
</svg>
