<svg width="36" height="36" viewBox="0 0 36 36" fill="none" xmlns="http://www.w3.org/2000/svg">
<path d="M0 5C0 2.23858 2.23858 0 5 0H31C33.7614 0 36 2.23858 36 5V31C36 33.7614 33.7614 36 31 36H5C2.23858 36 0 33.7614 0 31V5Z" fill="#E0E0E0" fill-opacity="0.3"/>
<g opacity="0.5">
<path fill-rule="evenodd" clip-rule="evenodd" d="M14 18.0001C14 18.3537 14.1405 18.6929 14.3905 18.9429L19.7239 24.2763C20.2446 24.797 21.0889 24.797 21.6095 24.2763C22.1302 23.7556 22.1302 22.9113 21.6095 22.3907L17.219 18.0001L21.6095 13.6095C22.1302 13.0888 22.1302 12.2446 21.6095 11.7239C21.0889 11.2032 20.2446 11.2032 19.7239 11.7239L14.3905 17.0573C14.1405 17.3073 14 17.6465 14 18.0001Z" fill="#2C2C2C"/>
</g>
</svg>
