<svg width="20" height="20" viewBox="0 0 20 20" fill="none" xmlns="http://www.w3.org/2000/svg">
<path fill-rule="evenodd" clip-rule="evenodd" d="M9.16663 5.83329C7.32568 5.83329 5.83329 7.32568 5.83329 9.16663C5.83329 11.0075 7.32568 12.5 9.16663 12.5C11.0075 12.5 12.5 11.0075 12.5 9.16663C12.5 7.32568 11.0075 5.83329 9.16663 5.83329ZM4.16663 9.16663C4.16663 6.4052 6.4052 4.16663 9.16663 4.16663C11.928 4.16663 14.1666 6.4052 14.1666 9.16663C14.1666 10.2465 13.8243 11.2464 13.2422 12.0637L16.4225 15.244C16.748 15.5695 16.748 16.0971 16.4225 16.4225C16.0971 16.748 15.5695 16.748 15.244 16.4225L12.0637 13.2422C11.2464 13.8243 10.2465 14.1666 9.16663 14.1666C6.4052 14.1666 4.16663 11.928 4.16663 9.16663Z" fill="#18A0FB"/>
</svg>
