<svg width="20" height="20" viewBox="0 0 20 20" fill="none" xmlns="http://www.w3.org/2000/svg">
<path d="M12.5 10.5083H13V10.0083V8.84167H13.6667V10.8417C13.6667 11.0264 13.5181 11.175 13.3334 11.175H6.66671C6.48202 11.175 6.33337 11.0264 6.33337 10.8417V8.84167H7.00004V10.0083V10.5083H7.50004H12.5Z" fill="#2C2C2C" stroke="#2C2C2C"/>
<path d="M2.55285 5.23895L2.54174 5.23102L4.49123 2.63889L4.49172 2.63823C4.70841 2.34912 5.05813 2.17419 5.42329 2.17419H14.59C14.9562 2.17419 15.3068 2.35045 15.5249 2.64305L15.5253 2.64354L17.4717 5.24771L17.4621 5.25509L17.7552 5.64977C17.8152 5.73054 17.8333 5.79167 17.8333 5.84169V15.0084C17.8333 15.6514 17.3097 16.175 16.6666 16.175H3.33329C2.69027 16.175 2.16663 15.6514 2.16663 15.0084V5.84169C2.16663 5.79138 2.18517 5.72919 2.24579 5.64836L2.55285 5.23895ZM5.42329 2.84169H5.17369L5.02368 3.04118L3.77034 4.70785L3.16836 5.50836H4.16996H15.8358H16.8338L16.2363 4.709L14.9904 3.04234L14.8405 2.84169H14.59H5.42329ZM2.83329 15.0084V15.5084H3.33329H16.6683H17.1684L17.1683 15.0083L17.1666 6.67493L17.1665 6.17503H16.6666H3.33329H2.83329V6.67503V15.0084Z" fill="#2C2C2C" stroke="#2C2C2C"/>
</svg>
