<svg width="16" height="16" viewBox="0 0 16 16" fill="none" xmlns="http://www.w3.org/2000/svg">
<path d="M8.00008 7.76427L7.64653 7.41071L5.45127 5.21544C5.45127 5.21544 5.45127 5.21544 5.45127 5.21544C5.38618 5.15036 5.28066 5.15036 5.21557 5.21543C5.21556 5.21544 5.21556 5.21544 5.21556 5.21544M8.00008 7.76427L4.86201 5.8047C4.60166 5.54435 4.60166 5.12224 4.86201 4.86189L5.21556 5.21544M8.00008 7.76427L8.35364 7.41071M8.00008 7.76427L8.35364 7.41071M5.21556 5.21544C5.15048 5.28054 5.15048 5.38606 5.21556 5.45115L5.21556 5.21544ZM8.35364 7.41071L10.5489 5.21544L10.5489 5.21543M8.35364 7.41071L10.5489 5.21543M10.5489 5.21543C10.614 5.15036 10.7195 5.15036 10.7846 5.21543L10.5489 5.21543ZM7.41083 7.6464L5.21557 5.45115L10.7846 5.21543C10.8497 5.28052 10.8497 5.38605 10.7846 5.45115C10.7846 5.45115 10.7846 5.45116 10.7846 5.45116L8.58933 7.64641L8.23577 7.99996L8.58933 8.35351L10.7846 10.5488C10.8497 10.6139 10.8497 10.7194 10.7846 10.7845C10.7195 10.8495 10.614 10.8495 10.5489 10.7845L8.35363 8.58921L8.00008 8.23565L7.64653 8.58921L5.45128 10.7845C5.45128 10.7845 5.45127 10.7845 5.45127 10.7845C5.38617 10.8495 5.28064 10.8495 5.21555 10.7845C5.15048 10.7194 5.15048 10.6139 5.21555 10.5488L5.21556 10.5488L7.41083 8.35351L7.76439 7.99996L7.41083 7.6464Z" stroke="white"/>
</svg>
